<?xml version="1.0" encoding="utf-8"?>
<!-- Generator: Adobe Illustrator 25.0.1, SVG Export Plug-In . SVG Version: 6.00 Build 0)  -->
<svg version="1.1" id="Layer_1" xmlns="http://www.w3.org/2000/svg" xmlns:xlink="http://www.w3.org/1999/xlink" x="0px" y="0px"
	 viewBox="0 0 50 56" style="enable-background:new 0 0 50 56;" xml:space="preserve">
<style type="text/css">
	.st0{fill:#918F8E;}
	.st1{fill:#4B5058;}
</style>
<path class="st0" d="M18.5,21.6"/>
<g>
	<path class="st1" d="M24.6,16.9c-0.2,0.5-0.5,1.7-1.2,3.6h2.3c-0.6-1.8-0.9-2.9-0.9-3.2C24.7,17.4,24.6,17.1,24.6,16.9z"/>
	<path class="st1" d="M47.5,30.6l-4.4-10.1c-0.2-0.2-0.2-0.5-0.2-0.8c0.2-2,0.8-9.8-5.3-13.9C28.7-0.2,5.4-2.9,3.9,20.6
		c0,0.2,0,0.2,0,0.2c0,0.8,0.2,6.4,3.9,10.9c3.2,3.9,4.8,12.9,4.2,18.3h14.7c0,0-0.5-4.1,2.6-4.4c2.9-0.2,8.5-0.2,9.2-0.2
		c0.2,0,0.2,0,0.2,0c0.8-0.2,4.5-0.6,4.7-3.8c0-2.4,0-4.8,0-6.2c0-0.6,0.3-1.2,0.9-1.5l2.6-1.4C47.5,32.2,47.8,31.3,47.5,30.6z
		 M22.5,9.4l0.9,2.9c0.2,0.2,0.2,0.3,0.2,0.6c0.2,0.3,0.2,0.3,0.2,0.5c0-0.2,0.2-0.5,0.2-1.1l0.9-2.9h1.1l-1.7,4.8h-1.1l-1.7-4.8
		C21.4,9.4,22.5,9.4,22.5,9.4z M17.3,22.8c0.6,0,1.2-0.2,2.3-0.5v1.5c-0.8,0.2-1.5,0.5-2.3,0.5c-1.2,0-2.3-0.3-2.9-1.2
		c-0.8-0.8-1.1-1.8-1.1-3.3c0-0.9,0.2-1.7,0.5-2.3c0.3-0.8,0.8-1.2,1.4-1.5c0.6-0.3,1.2-0.5,2.3-0.5c1.1,0,1.7,0.2,2.6,0.6l-0.6,1.5
		c-0.3-0.2-0.6-0.2-0.9-0.5c-0.3-0.2-0.6-0.2-0.9-0.2c-0.8,0-1.2,0.2-1.5,0.8c-0.3,0.5-0.6,1.2-0.6,2.3C15.1,21.9,16,22.8,17.3,22.8
		z M19.9,14.2h-1.1v-3.9h-1.2V9.4h3.8v0.9h-1.2L19.9,14.2L19.9,14.2z M26.9,24.2l-0.8-2h-3l-0.8,2.1h-2l2.9-8.5
		c0.2-0.2,0.6-0.3,0.5-0.2l2,0.2l3,8.6L26.9,24.2L26.9,24.2z M28.4,14.2c-0.6,0-1.2-0.2-1.5-0.5c-0.3-0.3-0.5-0.8-0.5-1.2v-3h1.1
		v2.9c0,0.3,0.2,0.6,0.2,0.8c0.2,0.2,0.5,0.2,0.8,0.2s0.6-0.2,0.8-0.2c0.2-0.2,0.2-0.5,0.2-0.9V9.4h1.1v3.2c0,0.3-0.2,0.8-0.2,0.9
		c-0.2,0.2-0.5,0.5-0.8,0.6C29.3,14.2,28.8,14.2,28.4,14.2z M34.1,23.6c-0.5,0.5-1.2,0.8-2.3,0.8c-0.9,0-1.8-0.2-2.4-0.5v-1.7
		c0.6,0.2,1.1,0.5,1.5,0.5c0.5,0.2,0.8,0.2,1.2,0.2c0.5,0,0.8-0.2,0.9-0.2c0.2-0.2,0.3-0.3,0.3-0.8c0-0.2-0.2-0.3-0.2-0.5
		c-0.2-0.2-0.2-0.2-0.5-0.3c-0.2-0.2-0.5-0.3-1.2-0.6c-0.5-0.2-0.9-0.5-1.2-0.8c-0.2-0.2-0.5-0.5-0.6-0.8c-0.2-0.3-0.2-0.8-0.2-1.1
		c0-0.8,0.2-1.4,0.8-1.8c0.5-0.5,1.2-0.8,2.3-0.8c0.5,0,0.9,0.2,1.2,0.2c0.5,0.2,0.9,0.2,1.2,0.5l-0.6,1.4c-0.5-0.2-0.9-0.3-1.2-0.5
		c-0.2-0.2-0.6-0.2-0.9-0.2c-0.3,0-0.6,0.2-0.8,0.2c-0.2,0.2-0.2,0.3-0.2,0.6c0,0.2,0,0.2,0.2,0.5c0.2,0.2,0.2,0.2,0.3,0.3
		c0.2,0.2,0.5,0.3,1.2,0.6c0.8,0.3,1.4,0.8,1.7,1.2c0.2,0.3,0.5,0.9,0.5,1.4C35,22.7,34.7,23.3,34.1,23.6z"/>
</g>
</svg>
