<svg version="1.2" xmlns="http://www.w3.org/2000/svg" overflow="visible" preserveAspectRatio="none" viewBox="0 0 2845.06005859375 625.6199951171875" id="图层_1_1557852497205"><g transform="translate(1 1)"><style>.st0_1557852497205{fill:#56af31}.st1_1557852497205{fill:#fff}</style><path d="M551.65 329.52c.48-6.19.72-12.44.72-18.75 0-8.32-.42-16.55-1.25-24.66l-.01-.47-.05-.01C538.5 164.38 436 69.83 311.43 69.83c-133.06 0-240.94 107.88-240.94 240.95 0 132.81 107.45 240.51 240.15 240.93-.29.01-.44.01-.44.01h1.23c.16 0 .32-.01.48-.01l171.18-.61c70.49 6.14 70.49-62.53 70.49-62.53l-1.93-159.05zM312.13 515.39c-113.5 0-205.51-92.01-205.51-205.51s92.01-205.51 205.51-205.51 205.51 92.01 205.51 205.51-92.01 205.51-205.51 205.51zm163.57 12.6v-60.24l48.06 30.92-48.06 29.32z" class="st0_1557852497205" vector-effect="non-scaling-stroke"/><path class="st1_1557852497205" vector-effect="non-scaling-stroke" d="M240.26 267.24h-37.87v100.98h-26.36V267.24h-37.87v-20.62h102.1zm48.93 153.42h-3.47v-12.85c0-3.1-.13-5.17-.39-6.21-.4-1.78-1.17-3.12-2.31-4.02s-2.63-1.35-4.46-1.35c-2.1 0-3.98.69-5.64 2.08-1.66 1.39-2.75 3.1-3.28 5.15-.33 1.34-.5 3.78-.5 7.33v9.88h-3.47v-26.93h3.47v4.83c1.39-1.85 2.92-3.23 4.61-4.15 1.68-.92 3.52-1.37 5.5-1.37 2.01 0 3.8.51 5.36 1.54 1.56 1.02 2.71 2.4 3.46 4.13.74 1.73 1.11 4.43 1.11 8.09v13.85zm8.83-52.44l-45.99-121.6h29.66l30.88 89.59 30.89-89.59h28.77l-45.98 121.6zm43.56 28.5h-5.5v23.94h-3.47v-23.94h-4.73v-3h4.73v-10h3.47v10h5.5zm31.59 23.94h-.64l-8.62-19.29-8.61 19.29h-.65l-11.51-26.94h3.57l8.26 19.56 8.6-19.56h.63l8.65 19.56 8.42-19.56h3.61zm59.49-23.79c-.73-.31-1.34-.47-1.83-.47-1.16 0-2.27.47-3.34 1.42-1.07.95-1.89 2.42-2.45 4.42-.43 1.53-.64 4.64-.64 9.31v9.11h-3.54v-26.93h3.54v3.94c1.06-1.55 2.17-2.71 3.34-3.48s2.39-1.15 3.67-1.15c.96 0 1.98.31 3.07.92l-1.82 2.91zm21.77 23.79l-13.57-12.13v12.13h-3.47v-37.33h3.47v21.26l12.5-10.87h5.09l-14.81 12.85 15.68 14.09zm19.69-1.61c-1.55 1.53-3.5 2.3-5.83 2.3-1.55 0-3.04-.34-4.45-1.02-1.41-.68-2.58-1.61-3.51-2.8l2.18-2.48c1.77 2 3.65 3 5.64 3 1.39 0 2.57-.45 3.55-1.34.98-.89 1.46-1.94 1.46-3.14 0-.99-.32-1.87-.97-2.65-.65-.76-2.1-1.72-4.37-2.87-2.43-1.25-4.09-2.49-4.97-3.71-.88-1.22-1.32-2.62-1.32-4.18 0-2.05.7-3.75 2.1-5.1 1.4-1.35 3.16-2.03 5.3-2.03 2.48 0 4.98 1.21 7.49 3.64l-2.23 2.3c-1.85-1.8-3.67-2.7-5.44-2.7-1.13 0-2.09.37-2.89 1.11-.8.74-1.2 1.61-1.2 2.6 0 .87.33 1.71.99 2.5.66.81 2.05 1.76 4.17 2.85 2.58 1.34 4.34 2.62 5.26 3.86a7.014 7.014 0 0 1 1.37 4.23c.01 2.22-.77 4.09-2.33 5.63zm.11-62.48c-8.87 7.76-21.94 11.65-39.21 11.65s-30.33-3.88-39.17-11.65c-8.85-7.76-10.42-18.91-10.42-33.43v-76.52h25.84v75.96c0 8.19 1.72 14.29 5.15 18.3 3.43 4.01 10.9 6.02 18.61 6.02 7.61 0 15.06-1.93 18.57-5.78 3.51-3.85 5.27-10.03 5.27-18.54v-75.96h25.84v76.44c-.01 14.58-1.61 25.75-10.48 33.51z"/><path class="st0_1557852497205" vector-effect="non-scaling-stroke" d="M372.85 413.28l-8.65-19.56h-.63l-8.6 19.56-8.26-19.56h-3.57l11.51 26.94h.65l8.61-19.29 8.62 19.29h.64l11.71-26.94h-3.61zm-88.23-18.71c-1.56-1.02-3.35-1.54-5.36-1.54-1.98 0-3.81.46-5.5 1.37-1.68.92-3.22 2.3-4.61 4.15v-4.83h-3.47v26.93h3.47v-9.88c0-3.55.16-5.99.5-7.33.53-2.05 1.62-3.76 3.28-5.15 1.66-1.39 3.54-2.08 5.64-2.08 1.83 0 3.32.45 4.46 1.35s1.91 2.24 2.31 4.02c.26 1.04.39 3.11.39 6.21v12.85h3.47v-13.86c0-3.66-.37-6.36-1.11-8.09-.76-1.72-1.91-3.1-3.47-4.12zm31.74 20.97c-.91.79-2.01 1.42-3.31 1.9-1.3.48-2.63.71-4.01.71-2.84 0-5.23-1-7.17-3-1.93-2-2.93-4.57-3-7.69h24.25c-.03-3.68-1.03-6.75-2.98-9.21-2.74-3.48-6.41-5.22-11.01-5.22-4.46 0-8.02 1.7-10.69 5.1-2.1 2.67-3.15 5.72-3.15 9.13 0 3.63 1.24 6.89 3.72 9.77 2.48 2.88 5.92 4.32 10.31 4.32 1.98 0 3.76-.3 5.33-.9 1.57-.6 2.98-1.48 4.24-2.64 1.26-1.16 2.36-2.67 3.32-4.55l-2.92-1.54c-1.04 1.76-2.02 3.03-2.93 3.82zm-13.99-16.64c1.9-1.7 4.17-2.55 6.82-2.55 1.6 0 3.13.34 4.59 1.02 1.45.68 2.62 1.57 3.51 2.67.88 1.11 1.56 2.58 2.02 4.43h-20.09c.71-2.48 1.77-4.33 3.15-5.57zm33.71-15.18h-3.47v10h-4.73v3h4.73v23.94h3.47v-23.94h5.5v-3h-5.5zm75.94 13.82c-2.73-3-6.17-4.51-10.32-4.51-4.17 0-7.62 1.51-10.35 4.53-2.48 2.74-3.72 5.97-3.72 9.7 0 3.76 1.31 7.05 3.93 9.86 2.62 2.81 6 4.22 10.14 4.22 4.12 0 7.49-1.41 10.11-4.22 2.62-2.81 3.93-6.1 3.93-9.86 0-3.74-1.24-6.98-3.72-9.72zm-1.21 15.25c-.94 1.68-2.22 2.98-3.83 3.9-1.61.92-3.37 1.37-5.29 1.37s-3.69-.46-5.29-1.37c-1.61-.92-2.88-2.22-3.83-3.9-.94-1.68-1.42-3.5-1.42-5.45 0-3.02 1.04-5.59 3.11-7.72s4.55-3.19 7.43-3.19c2.87 0 5.34 1.06 7.42 3.19s3.12 4.7 3.12 7.72c0 1.95-.48 3.76-1.42 5.45zm59.02-7.46c-2.12-1.09-3.51-2.04-4.17-2.85-.66-.79-.99-1.63-.99-2.5 0-.99.4-1.86 1.2-2.6.8-.74 1.77-1.11 2.89-1.11 1.77 0 3.58.9 5.44 2.7l2.23-2.3c-2.51-2.43-5.01-3.64-7.49-3.64-2.13 0-3.9.68-5.3 2.03-1.4 1.35-2.1 3.05-2.1 5.1 0 1.57.44 2.96 1.32 4.18.88 1.22 2.53 2.46 4.97 3.71 2.27 1.15 3.72 2.11 4.37 2.87.65.78.97 1.66.97 2.65 0 1.2-.49 2.25-1.46 3.14-.98.89-2.16 1.34-3.55 1.34-1.99 0-3.86-1-5.64-3l-2.18 2.48c.93 1.19 2.1 2.12 3.51 2.8 1.41.68 2.9 1.02 4.45 1.02 2.33 0 4.28-.77 5.83-2.3 1.55-1.54 2.33-3.41 2.33-5.62 0-1.57-.46-2.98-1.37-4.23-.93-1.24-2.68-2.53-5.26-3.87zm-42.1-11.15c-1.17.77-2.29 1.93-3.34 3.48v-3.94h-3.54v26.93h3.54v-9.11c0-4.67.21-7.77.64-9.31.56-2 1.38-3.47 2.45-4.42 1.07-.95 2.19-1.42 3.34-1.42.49 0 1.11.16 1.83.47l1.81-2.92c-1.09-.61-2.11-.92-3.07-.92-1.26.01-2.49.39-3.66 1.16zm30.72-.46h-5.09l-12.5 10.87v-21.26h-3.47v37.33h3.47v-12.13l13.57 12.13h4.89l-15.68-14.09zM138.16 267.24h37.87v100.98h26.36V267.24h37.87v-20.62h-102.1zm205.3-20.62l-30.89 89.59-30.88-89.59h-29.66l45.99 121.6h28.23l45.98-121.6zm115.4 0v75.96c0 8.5-1.76 14.68-5.27 18.54-3.51 3.86-10.97 5.78-18.57 5.78-7.71 0-15.18-2.01-18.61-6.02-3.43-4.01-5.15-10.11-5.15-18.3v-75.96h-25.84v76.52c0 14.52 1.58 25.67 10.42 33.43 8.85 7.76 21.9 11.65 39.17 11.65 17.27 0 30.34-3.88 39.21-11.65s10.46-18.93 10.46-33.51v-76.44h-25.82zm226.06 9.57h64.13v165.64h52.96V256.19h64.13v-39.72H684.92zm301.41 104.44L936.7 216.47h-55.64l74.89 205.35h59.3l74.89-205.35h-54.17zm250.58-144.16v128.12c0 14.8-3.06 25.56-9.17 32.27-6.12 6.71-15.79 10.07-29.03 10.07-13.43 0-23.12-3.49-29.1-10.48s-8.97-17.61-8.97-31.86V216.47h-53.24v131.16c0 25.29 7.7 44.68 23.1 58.2 15.4 13.52 38.14 20.27 68.2 20.27s52.82-6.76 68.27-20.27c15.45-13.51 23.17-32.96 23.17-58.34V216.47h-53.23z"/><path class="st1_1557852497205" vector-effect="non-scaling-stroke" d="M1568.34 421.22h-33.58L1438 238.66v182.56h-25.36V217.14h42.08l88.26 166.66V217.14h25.36zm180.37-73.88h-112.8c0 9.41 1.42 17.61 4.25 24.6 2.83 6.99 6.72 12.73 11.65 17.2 4.75 4.39 10.39 7.67 16.93 9.87 6.53 2.19 13.73 3.29 21.59 3.29 10.42 0 20.9-2.08 31.45-6.24s18.07-8.25 22.55-12.27h1.37v28.1a210.4 210.4 0 0 1-26.59 9.18c-9.05 2.47-18.55 3.7-28.51 3.7-25.4 0-45.23-6.88-59.48-20.63s-21.38-33.28-21.38-58.59c0-25.04 6.83-44.91 20.49-59.62 13.66-14.71 31.64-22.07 53.93-22.07 20.65 0 36.57 6.03 47.76 18.09 11.19 12.06 16.79 29.19 16.79 51.4v13.99zm-25.08-19.73c-.09-13.52-3.49-23.99-10.21-31.39-6.72-7.4-16.93-11.1-30.63-11.1-13.8 0-24.79 4.07-32.96 12.2-8.18 8.13-12.81 18.23-13.91 30.29h87.71zm143.64 92.24c-4.84 1.28-10.12 2.33-15.83 3.15-5.71.82-10.81 1.23-15.28 1.23-15.63 0-27.5-4.2-35.64-12.61-8.13-8.41-12.2-21.88-12.2-40.43v-81.41h-17.41v-21.66h17.41v-44h25.77v44h53.18v21.66h-53.18v69.76c0 8.04.18 14.32.55 18.85.36 4.52 1.64 8.75 3.84 12.68 2.01 3.65 4.77 6.33 8.29 8.02 3.52 1.69 8.89 2.54 16.1 2.54 4.2 0 8.59-.62 13.16-1.85s7.86-2.26 9.87-3.08h1.37v23.15zm223.68-151.73l-39.89 153.1h-23.85l-39.33-118.01-39.06 118.01h-23.71l-40.3-153.1h26.86l28.1 118.56 38.24-118.56h21.24l39.2 118.56 26.59-118.56zm167.62 76.62c0 24.94-6.4 44.64-19.19 59.07-12.79 14.44-29.93 21.66-51.4 21.66-21.65 0-38.86-7.22-51.6-21.66-12.75-14.44-19.12-34.13-19.12-59.07 0-24.94 6.37-44.66 19.12-59.14 12.75-14.48 29.95-21.72 51.6-21.72 21.47 0 38.6 7.24 51.4 21.72 12.79 14.48 19.19 34.19 19.19 59.14m-26.59 0c0-19.83-3.89-34.56-11.65-44.2-7.77-9.64-18.55-14.46-32.35-14.46-13.98 0-24.83 4.82-32.55 14.46-7.72 9.64-11.58 24.37-11.58 44.2 0 19.19 3.88 33.74 11.65 43.65 7.76 9.92 18.59 14.87 32.48 14.87 13.71 0 24.47-4.91 32.28-14.73 7.81-9.82 11.72-24.42 11.72-43.79m162.01-48.52h-1.37c-3.84-.91-7.56-1.58-11.17-1.99-3.61-.41-7.88-.62-12.82-.62-7.95 0-15.63 1.76-23.03 5.28-7.4 3.52-14.53 8.07-21.38 13.64v108.69h-25.77v-153.1h25.77v22.61c10.23-8.22 19.26-14.05 27.07-17.47 7.81-3.43 15.78-5.14 23.92-5.14 4.48 0 7.72.11 9.73.34 2.01.23 5.02.66 9.05 1.3v26.46zm163.23 125h-33.99l-61.4-67.02-16.72 15.89v51.13h-25.77V207.95h25.77v136.79l74.42-76.62h32.49l-71.14 70.72zm136.52-44.14c0 13.98-5.78 25.45-17.34 34.4-11.56 8.96-27.34 13.43-47.35 13.43-11.33 0-21.73-1.35-31.18-4.04-9.46-2.69-17.38-5.64-23.78-8.84v-28.92h1.37c8.13 6.12 17.18 10.99 27.14 14.6 9.96 3.61 19.51 5.41 28.65 5.41 11.33 0 20.19-1.83 26.59-5.48 6.4-3.65 9.59-9.41 9.59-17.27 0-6.03-1.74-10.6-5.21-13.71-3.47-3.1-10.14-5.76-20.01-7.95-3.66-.82-8.43-1.78-14.32-2.88-5.89-1.1-11.26-2.28-16.1-3.56-13.43-3.56-22.96-8.79-28.58-15.69-5.62-6.9-8.43-15.37-8.43-25.42 0-6.3 1.3-12.24 3.91-17.82 2.6-5.57 6.55-10.55 11.86-14.94 5.12-4.29 11.63-7.7 19.53-10.21 7.9-2.51 16.74-3.77 26.52-3.77 9.14 0 18.39 1.12 27.75 3.36 9.36 2.24 17.15 4.96 23.37 8.16v27.55h-1.37c-6.58-4.84-14.57-8.93-23.99-12.27-9.41-3.33-18.64-5-27.68-5-9.41 0-17.36 1.81-23.85 5.41-6.49 3.61-9.73 8.98-9.73 16.1 0 6.3 1.96 11.06 5.89 14.25 3.84 3.2 10.05 5.8 18.64 7.81 4.75 1.1 10.07 2.19 15.97 3.29 5.89 1.1 10.8 2.1 14.73 3.02 11.97 2.74 21.2 7.45 27.69 14.12 6.47 6.76 9.72 15.72 9.72 26.86m35.24-92.7c1.51-.58 2.69-1.36 3.56-2.34.86-.98 1.29-2.21 1.29-3.69 0-1.11-.23-2.04-.67-2.78-.45-.74-1.15-1.37-2.11-1.89-.9-.47-1.81-.77-2.75-.89-.93-.12-2.11-.18-3.54-.18h-7.14v20.92h3.77v-8.12h3.7l7.57 8.12h5.1l-8.78-9.15zm-.54-2.81c-.44.35-1.01.6-1.69.74-.69.15-1.5.22-2.45.22h-2.9v-7.07h3.41c.81 0 1.48.04 2.01.12.54.07 1.04.24 1.51.5.5.28.86.63 1.07 1.05.21.43.32.92.32 1.46 0 .69-.1 1.26-.29 1.72-.19.46-.52.88-.99 1.26"/><path d="M2739.01 269.48c-3.87-3.86-8.53-5.8-13.98-5.8-5.46 0-10.12 1.93-13.98 5.8-3.86 3.86-5.8 8.53-5.8 13.98 0 5.46 1.93 10.12 5.8 13.98 3.86 3.86 8.52 5.8 13.98 5.8 5.46 0 10.12-1.93 13.98-5.8 3.86-3.86 5.8-8.53 5.8-13.98 0-5.45-1.93-10.11-5.8-13.98m-1.87 26.15c-3.35 3.38-7.38 5.08-12.11 5.08-4.73 0-8.76-1.69-12.11-5.08-3.34-3.38-5.02-7.44-5.02-12.17 0-4.73 1.67-8.78 5.02-12.17 3.35-3.38 7.38-5.08 12.11-5.08 4.72 0 8.76 1.69 12.11 5.08 3.35 3.38 5.02 7.44 5.02 12.17 0 4.73-1.68 8.79-5.02 12.17" class="st1_1557852497205" vector-effect="non-scaling-stroke"/></g></svg>