<?xml version="1.0" encoding="utf-8"?>
<!-- Generator: Adobe Illustrator 25.0.1, SVG Export Plug-In . SVG Version: 6.00 Build 0)  -->
<svg version="1.1" id="Layer_1" xmlns="http://www.w3.org/2000/svg" xmlns:xlink="http://www.w3.org/1999/xlink" x="0px" y="0px"
	 viewBox="0 0 50 56" style="enable-background:new 0 0 50 56;" xml:space="preserve">
<style type="text/css">
	.st0{fill:#918F8E;}
	.st1{fill:#4B5058;}
	.st2{fill:#FFFFFF;}
	.st3{fill:none;stroke:#FFFFFF;stroke-width:0.8691;stroke-miterlimit:10;}
</style>
<polygon class="st0" points="19.7,20.6 20.4,17.6 21.2,17.6 22.1,20.6 "/>
<path class="st1" d="M47.1,32.4l-4.3-10.2c-0.2-0.3-0.2-0.5-0.2-0.8c0.2-1.8,0.8-10.1-5.2-14.2c-9-5.8-32.2-8.7-33.7,15.1
	c0,0.2,0,0.2,0,0.2c0,0.8,0.3,6.3,4,11c3.2,4.1,4.7,13,4.3,18.6h14.5c0,0-0.5-4.3,2.6-4.3c2.9-0.2,8.4-0.2,9.1-0.2
	c0.2,0,0.2,0,0.2,0c0.8-0.2,4.6-0.6,4.7-3.8c0-2.4,0-4.9,0-6.3c0-0.6,0.3-1.2,0.8-1.5l2.6-1.4C47.1,33.9,47.4,33.1,47.1,32.4z"/>
<circle class="st2" cx="35.4" cy="12.9" r="1.7"/>
<circle class="st2" cx="26.5" cy="35.7" r="1.7"/>
<circle class="st2" cx="22.6" cy="20.8" r="3.4"/>
<circle class="st2" cx="9.8" cy="19" r="1.7"/>
<polyline class="st3" points="26.2,35 23,22.6 35.4,12.9 "/>
<circle class="st2" cx="15.3" cy="30.2" r="1.2"/>
<circle class="st2" cx="23" cy="9.7" r="1.2"/>
<polyline class="st3" points="25.5,35.9 15.3,30.2 9.8,19 22.1,20.6 "/>
<line class="st3" x1="21.2" y1="21.7" x2="15.3" y2="30.2"/>
<polyline class="st3" points="10.2,18.2 22.6,9.8 22.6,18.2 "/>
<line class="st3" x1="23.3" y1="9.8" x2="35.2" y2="12.4"/>
</svg>
