<?xml version="1.0" encoding="utf-8"?>
<!-- Generator: Adobe Illustrator 25.0.1, SVG Export Plug-In . SVG Version: 6.00 Build 0)  -->
<svg version="1.1" id="Layer_1_1560857895596" xmlns="http://www.w3.org/2000/svg" xmlns:xlink="http://www.w3.org/1999/xlink"
	 x="0px" y="0px" viewBox="0 0 179.1 168.1" style="enable-background:new 0 0 179.1 168.1;" xml:space="preserve">
<style type="text/css">
	.st0{fill:#4B5058;}
</style>
<path class="st0" d="M164.1,95v35.6H15.2V95H164.1L164.1,95z M170,95c1.6,0,3,1.4,3,3v29.7c0,1.6-1.4,3-3,3h-3V95H170L170,95z
	 M12.2,95v35.6h-3c-1.6,0-3-1.4-3-3V98c0-1.6,1.4-3,3-3H12.2L12.2,95z M89.6,122c-1.6,0-3,1.4-3,3s1.4,3,3,3s3-1.4,3-3
	S91.2,122,89.6,122L89.6,122z M89.6,106.9c-3.2,0-5.9,2.7-5.9,5.9s2.7,5.9,5.9,5.9c3.2,0,5.9-2.7,5.9-5.9
	C95.5,109.6,93.1,106.9,89.6,106.9L89.6,106.9z M77.8,109.9c-1.6,0-3,1.4-3,3s1.4,3,3,3s3-1.4,3-3S79.4,109.9,77.8,109.9L77.8,109.9
	z M101.5,109.9c-1.6,0-3,1.4-3,3s1.4,3,3,3c1.6,0,3-1.4,3-3S103.1,109.9,101.5,109.9L101.5,109.9z M89.6,98c-1.6,0-3,1.4-3,3
	c0,1.6,1.4,3,3,3s3-1.4,3-3C92.6,99.5,91.2,98,89.6,98L89.6,98z M147.1,59.4c2.4,0,4.6,1.4,5.4,3.8l11.6,28.9H15.2l11.6-28.9
	c0.8-2.2,3-3.8,5.4-3.8L147.1,59.4L147.1,59.4z"/>
<g>
	<path d="M86.6,51.5v-6.8H74.8v-2.2l11.1-16h3.7V42h3.5v2.7h-3.5v6.8H86.6z M86.6,42v-8.4c0-1.4,0-2.7,0.2-4h-0.2
		c-0.8,1.4-1.4,2.7-2.1,3.7l-6,8.6l0,0h8.1C86.6,41.8,86.6,42,86.6,42z"/>
	<path d="M100.4,41.5L100.4,41.5c0.6-0.6,1.3-1.4,1.7-2.2l5.4-6.5h4l-7.3,7.6l8.3,11.1h-4l-6.5-9.1l-1.7,2.1v7.1h-3.5V24h3.5v17.5
		H100.4z"/>
</g>
</svg>
