<?xml version="1.0" encoding="utf-8"?>
<!-- Generator: Adobe Illustrator 25.0.1, SVG Export Plug-In . SVG Version: 6.00 Build 0)  -->
<svg version="1.1" id="Layer_1_1560857895596" xmlns="http://www.w3.org/2000/svg" xmlns:xlink="http://www.w3.org/1999/xlink"
	 x="0px" y="0px" viewBox="0 0 179.1 168.1" style="enable-background:new 0 0 179.1 168.1;" xml:space="preserve">
<style type="text/css">
	.st0{fill:#4B5058;}
</style>
<g id="Symbols">
	<path id="TVU-CC-Copy" class="st0" d="M166.5,25.2H12.7C10.6,25.2,9,27,9,29v90.1c0,2.1,1.8,3.9,3.7,3.9h153.5
		c2.1,0,3.7-1.8,3.7-3.9v-90C170.3,27.1,168.8,25.2,166.5,25.2z M86,113.5H21.1V76H86V113.5z M86.6,72.5H20.6V35h65.9
		C86.6,35,86.6,72.5,86.6,72.5z M157.3,113.2H92.4V75.9h64.9V113.2z M107.2,127.1v12.4h15.5v5.1H54.9v-5.1h16.4v-12.4H107.2z
		 M72.4,101.3c1.5,0,2.5,1.2,2.5,2.5c0.1,1.3-1,2.5-2.4,2.5H35.7c-1.5,0-2.5-1.2-2.5-2.5c0-1.5,1.2-2.5,2.5-2.5H72.4z M143.3,101.3
		c1.5,0,2.5,1.2,2.5,2.5s-1.2,2.5-2.5,2.5h-36.7c-1.5,0-2.5-1.2-2.5-2.5c0-1.5,1.2-2.5,2.5-2.5H143.3z M62,92.2
		c1.5,0,2.5,1.2,2.5,2.5s-1,2.5-2.5,2.5H35.7c-1.5,0-2.5-1.2-2.5-2.5c0-1.3,1.2-2.5,2.5-2.5H62z M132.7,92.2c1.5,0,2.5,1.2,2.5,2.5
		s-1,2.5-2.5,2.5h-26.3c-1.5,0-2.5-1.2-2.5-2.5c0-1.3,1.2-2.5,2.5-2.5H132.7z M51.4,83.3c1.5,0,2.5,1.2,2.5,2.5
		c0.1,1.3-1,2.5-2.4,2.5H35.7c-1.5,0-2.5-1.2-2.5-2.5c0-1.5,1.2-2.5,2.5-2.5H51.4z M122.2,83.3c1.5,0,2.5,1.2,2.5,2.5
		c0,1.3-1.2,2.5-2.5,2.5h-15.7c-1.5,0-2.5-1.2-2.5-2.5c0-1.5,1.2-2.5,2.5-2.5H122.2z M157.4,35v37.4H92.5V35H157.4z M53.2,40.1v14.3
		c0,0.1,0,0.1,0.1,0.1h14.9c0,7.8-6.4,13.6-14.2,13.6s-13.9-6-13.9-13.7S45.7,40.1,53.2,40.1z M138.8,42.2c-2.1,0-3.7,1.6-3.7,3.9
		c0,0.7,0.3,1.5,0.6,2.1l-6,10h-0.6l0,0l-4.6-7.8c0.4-0.6,0.6-1.3,0.6-2.1c0-2.1-1.6-3.9-3.7-3.9c-2.1,0-3.7,1.6-3.7,3.9
		c0,0.7,0.1,1.5,0.6,2.1l-6.4,7.8h-0.3l0,0c-2.1,0-3.7,1.6-3.7,3.9c0,2.2,1.6,3.9,3.7,3.9c2.1,0,3.7-1.6,3.7-3.9
		c0-0.7-0.1-1.5-0.6-2.1l6.4-7.8h0.6l0,0l4.6,7.8c-0.3,0.6-0.6,1.3-0.6,2.1c0,2.1,1.6,3.9,3.7,3.9c2.1,0,3.7-1.6,3.7-3.9
		c0-0.7-0.3-1.5-0.6-2.1l6-10h0.3l0,0c2.1,0,3.7-1.6,3.7-3.9S141,42.2,138.8,42.2z M54.9,39.2c7.8,0,14,5.8,14,13.6h-14V39.2z"/>
</g>
</svg>
