<?xml version="1.0" encoding="utf-8"?>
<!-- Generator: Adobe Illustrator 25.0.1, SVG Export Plug-In . SVG Version: 6.00 Build 0)  -->
<svg version="1.1" id="Layer_1_1560857895596" xmlns="http://www.w3.org/2000/svg" xmlns:xlink="http://www.w3.org/1999/xlink"
	 x="0px" y="0px" viewBox="0 0 179.1 168.1" style="enable-background:new 0 0 179.1 168.1;" xml:space="preserve">
<style type="text/css">
	.st0{fill:#4B5058;}
</style>
<path class="st0" d="M134.4,83.1c1.8,0,3.3,1.6,3.3,3.5l0,0v49.1c0,2-1.5,3.5-3.3,3.5l0,0H47.6c-1.8,0-3.3-1.6-3.3-3.5l0,0V86.5
	c0-2,1.5-3.5,3.3-3.5l0,0H134.4z M162.6,89.3v43.5l-18.6-14.5v-14.5L162.6,89.3L162.6,89.3z M63,95.6c-3.5,0-6.3,2.8-6.3,6.3
	c0,3.5,2.8,6.3,6.3,6.3s6.3-2.8,6.3-6.3C69.2,98.2,66.4,95.6,63,95.6L63,95.6z M100.2,39.5c3.5,0,6.3,2.8,6.3,6.3V77H48
	c-5.1,0-9.4,4.1-9.9,9.4v1v8.4H19.3c-3.5,0-6.3-2.8-6.3-6.3V45.6c0-3.5,2.8-6.3,6.3-6.3h81V39.5z M131.4,45.6v31.2h-16l-2.6-2.1
	V60.1L131.4,45.6L131.4,45.6z M31.8,51.9c-3.5,0-6.3,2.8-6.3,6.3c0,3.5,2.8,6.3,6.3,6.3s6.3-2.8,6.3-6.3
	C38.1,54.7,35.3,51.9,31.8,51.9L31.8,51.9z M153.3,27c1.6,0,3.1,1.3,3.1,3.1v9.4h9.4c1.6,0,3.1,1.3,3.1,3.1c0,1.6-1.3,3.1-3.1,3.1
	h-9.4V55c0,1.6-1.3,3.1-3.1,3.1c-1.6,0-3.1-1.3-3.1-3.1v-9.4h-9.4c-1.6,0-3.1-1.3-3.1-3.1c0-1.6,1.3-3.1,3.1-3.1h9.4V30
	C150.2,28.3,151.5,27,153.3,27L153.3,27z"/>
</svg>
