<?xml version="1.0" encoding="utf-8"?>
<!-- Generator: Adobe Illustrator 25.0.1, SVG Export Plug-In . SVG Version: 6.00 Build 0)  -->
<svg version="1.1" id="Layer_1_1560857895596" xmlns="http://www.w3.org/2000/svg" xmlns:xlink="http://www.w3.org/1999/xlink"
	 x="0px" y="0px" viewBox="0 0 179.1 168.1" style="enable-background:new 0 0 179.1 168.1;" xml:space="preserve">
<style type="text/css">
	.st0{fill-rule:evenodd;clip-rule:evenodd;fill:#4B5058;}
</style>
<g id="Symbols">
	<path id="TVU-Search-Copy" class="st0" d="M83.8,7c35.1,0,63.7,29.9,63.7,66.6c0,13.7-4,26.5-10.9,37.2l21.7,21.7
		c3.5,3.5,3.5,9.1,0,12.5l-0.3,0.3c-3.5,3.5-9.1,3.5-12.6,0.2l0,0l0,0l-20.9-20.8c-11,9.7-25.2,15.5-40.9,15.5
		c-35.1,0-63.7-29.9-63.7-66.6S48.6,7,83.8,7z M83.8,27c-24.6,0-44.6,20.9-44.6,46.6s20,46.6,44.6,46.6s44.6-20.9,44.6-46.6
		S108.5,27,83.8,27z M76.3,52.8c1.3,0,2.6,0.3,3.7,1l22.8,13.4c3.5,2.1,4.6,6.4,2.6,9.9c-0.6,1.1-1.6,1.9-2.6,2.6L79.9,93.1
		c-3.5,2.1-8,1-9.9-2.6c-0.6-1.1-1-2.4-1-3.7V60C69.1,56,72.3,52.8,76.3,52.8z"/>
</g>
</svg>
