<?xml version="1.0" encoding="utf-8"?>
<!-- Generator: Adobe Illustrator 25.0.1, SVG Export Plug-In . SVG Version: 6.00 Build 0)  -->
<svg version="1.1" id="Layer_1_1560857895591" xmlns="http://www.w3.org/2000/svg" xmlns:xlink="http://www.w3.org/1999/xlink"
	 x="0px" y="0px" viewBox="0 0 182.9 165.6" style="enable-background:new 0 0 182.9 165.6;" xml:space="preserve">
<style type="text/css">
	.st0{fill:#4B5058;}
	.st1{fill:#FCFCFC;}
	.st2{fill-rule:evenodd;clip-rule:evenodd;fill:#4B5058;}
</style>
<path class="st0" d="M170.2,125.8H15.8c-2.2,0-3.8-1.7-3.8-3.8V31.8c0-2.2,1.7-3.8,3.8-3.8h154.3c2.2,0,3.8,1.7,3.8,3.8V122
	C174,124.1,172.3,125.8,170.2,125.8z"/>
<rect x="74.1" y="129.9" class="st0" width="35.6" height="12.4"/>
<rect x="57.7" y="142.3" class="st0" width="67.3" height="5.1"/>
<path class="st1" d="M120,82.4c-19.2,0-34.7,15.6-34.7,34.7h69.4C154.7,98,139.1,82.4,120,82.4z"/>
<circle class="st1" cx="120" cy="63" r="18.4"/>
<rect x="21.5" y="37.7" class="st1" width="53.2" height="58.9"/>
<path class="st0" d="M48.1,75c-10.6,0-19.2,7.8-19.2,17.5h38.4C67.3,82.8,58.7,75,48.1,75z"/>
<circle class="st0" cx="48.1" cy="64.3" r="10.2"/>
<g>
	<g>
		<path class="st0" d="M35.4,56.8h-2.3c0.1-9.5,7.4-14.5,14.6-14.5c0,0,0.1,0,0.1,0c3.6,0,7,1.2,9.4,3.5c2.8,2.6,4.4,6.3,4.5,10.9
			l-2.3,0.1c-0.2-8.4-6.1-12.2-11.8-12.2C41.7,44.6,35.5,48.8,35.4,56.8z"/>
	</g>
	<path class="st2" d="M35.5,56.4h-3.3c-1.8,0-3.3,1.4-3.3,3.1v5.9c0,1.7,1.5,3.1,3.3,3.1h3.3V56.4z"/>
	<path class="st2" d="M59.4,56.6h3.3c1.8,0,3.3,1.4,3.3,3.1v5.9c0,1.7-1.5,3.1-3.3,3.1h-3.3V56.6z"/>
</g>
</svg>
