<?xml version="1.0" encoding="utf-8"?>
<!-- Generator: Adobe Illustrator 25.0.1, SVG Export Plug-In . SVG Version: 6.00 Build 0)  -->
<svg version="1.1" id="Layer_1_1560857895596" xmlns="http://www.w3.org/2000/svg" xmlns:xlink="http://www.w3.org/1999/xlink"
	 x="0px" y="0px" viewBox="0 0 179.1 168.1" style="enable-background:new 0 0 179.1 168.1;" xml:space="preserve">
<style type="text/css">
	.st0{fill:#4B5058;}
</style>
<g>
	<path class="st0" d="M65.4,61.7c-0.5,1.9-1.9,6.5-4.2,14h8.4c-2.1-7-3.3-10.9-3.7-11.9C65.8,62.9,65.6,62.2,65.4,61.7z"/>
	<path class="st0" d="M96.3,69.4c-1.8,0-2.8,0.5-3.7,1.6c-0.7,1.1-1.2,2.8-1.2,5.1v0.7c0,2.6,0.4,4.6,1.2,5.8
		c0.9,1.2,2.1,1.8,3.7,1.8c1.4,0,2.5-0.7,3.3-1.9s1.2-3.2,1.2-5.6c0-2.5-0.4-4.2-1.2-5.4C98.7,69.9,97.7,69.4,96.3,69.4z"/>
	<path class="st0" d="M149.4,28.2H31.9c-9.8,0-17.7,7.9-17.7,17.7v59.3c0,9.8,7.9,17.7,17.7,17.7h14.2l2.8,27l50-26.8h50.5
		c9.8,0,17.7-7.9,17.7-17.7V46.1C167.3,36.2,159.4,28.2,149.4,28.2z M48.6,61.5h-4.9v30.2h4.9v4.7H37.9V56.7h10.7V61.5z M73.7,89.2
		l-2.3-7.7H59.6l-2.3,7.7H50l11.4-32.6h8.4l11.4,32.6H73.7z M105.2,86.2c-1.8,2.3-4,3.3-7,3.3c-3,0-5.3-1.1-6.8-3.2h-0.5l-1.1,2.8
		h-5.1V54.6h6.8v8.1c0,1.1-0.2,2.6-0.4,4.9h0.4c1.6-2.5,3.9-3.7,7-3.7c3,0,5.3,1.2,6.8,3.5c1.6,2.3,2.5,5.4,2.5,9.5
		C107.7,80.8,107,83.9,105.2,86.2z M124,84.1c1.2,0,2.5-0.2,3.7-0.5c1.2-0.4,2.3-0.9,3.3-1.6v5.8c-1.1,0.7-2.3,1.2-3.3,1.4
		c-1.1,0.4-2.5,0.4-4.2,0.4c-7.7,0-11.6-4.2-11.6-12.6c0-4.2,1.1-7.4,3.2-9.6s5.1-3.3,8.9-3.3c2.8,0,5.4,0.5,7.7,1.8l-1.9,5.3
		c-1.1-0.4-2.1-0.7-3-1.1s-1.8-0.4-2.8-0.4c-3.5,0-5.3,2.5-5.3,7.5C118.7,81.6,120.5,84.1,124,84.1z M145,96.4h-10.7v-4.7h4.9V61.5
		h-4.9v-4.7H145V96.4z"/>
</g>
</svg>
