<?xml version="1.0" encoding="utf-8"?>
<!-- Generator: Adobe Illustrator 24.2.0, SVG Export Plug-In . SVG Version: 6.00 Build 0)  -->
<svg version="1.1" id="Layer_1_1560857895591" xmlns="http://www.w3.org/2000/svg" xmlns:xlink="http://www.w3.org/1999/xlink"
	 x="0px" y="0px" viewBox="0 0 182.9 165.6" style="enable-background:new 0 0 182.9 165.6;" xml:space="preserve">
<style type="text/css">
	.st0{fill:#4B5058;}
</style>
<rect x="77.1" y="109.4" vector-effect="non-scaling-stroke" class="st0" width="23.7" height="8.3"/>
<rect x="66.2" y="117.6" vector-effect="non-scaling-stroke" class="st0" width="44.9" height="3.4"/>
<path vector-effect="non-scaling-stroke" class="st0" d="M66,61.7c-5.4,0-9.7,3.9-9.7,8.8h19.4C75.7,65.6,71.4,61.7,66,61.7z"/>
<ellipse vector-effect="non-scaling-stroke" class="st0" cx="66" cy="56.3" rx="5.1" ry="5.1"/>
<path class="st0" d="M140.2,41.9H38.2c-1.4,0-2.5,1.2-2.5,2.6v59.7c0,1.4,1.2,2.6,2.5,2.6h101.8c1.4,0,2.5-1.2,2.5-2.6V44.5
	C142.6,43.1,141.6,41.9,140.2,41.9z M86.7,100.4h-43V75.6h43V100.4z M87.1,73.2H43.4V48.4h43.7V73.2z M134,100.2H91V75.5h43V100.2z
	 M134.1,73.2h-43V48.4h43V73.2z"/>
<path vector-effect="non-scaling-stroke" class="st0" d="M65.9,89c-5.4,0-9.7,3.9-9.7,8.8h19.4C75.6,92.9,71.3,89,65.9,89z"/>
<ellipse vector-effect="non-scaling-stroke" class="st0" cx="65.9" cy="83.6" rx="5.1" ry="5.1"/>
<path vector-effect="non-scaling-stroke" class="st0" d="M114.1,61.6c-5.4,0-9.7,3.9-9.7,8.8h19.4C123.8,65.5,119.5,61.6,114.1,61.6
	z"/>
<ellipse vector-effect="non-scaling-stroke" class="st0" cx="114.1" cy="56.3" rx="5.1" ry="5.1"/>
<path vector-effect="non-scaling-stroke" class="st0" d="M114,88.9c-5.4,0-9.7,3.9-9.7,8.8h19.4C123.7,92.8,119.4,88.9,114,88.9z"/>
<ellipse vector-effect="non-scaling-stroke" class="st0" cx="114" cy="83.6" rx="5.1" ry="5.1"/>
<rect x="78.7" y="67.4" class="st0" width="5.9" height="3.4"/>
<rect x="78.4" y="94.3" class="st0" width="5.9" height="3.4"/>
<rect x="126.5" y="66.3" class="st0" width="5.9" height="3.4"/>
<rect x="126.3" y="93.8" class="st0" width="5.9" height="3.4"/>
</svg>
