<?xml version="1.0" encoding="utf-8"?>
<!-- Generator: Adobe Illustrator 25.0.1, SVG Export Plug-In . SVG Version: 6.00 Build 0)  -->
<svg version="1.1" id="Layer_1_1560857895596" xmlns="http://www.w3.org/2000/svg" xmlns:xlink="http://www.w3.org/1999/xlink"
	 x="0px" y="0px" viewBox="0 0 179.1 168.1" style="enable-background:new 0 0 179.1 168.1;" xml:space="preserve">
<style type="text/css">
	.st0{fill:#4B5058;}
</style>
<g transform="translate(1 1)">
	<path vector-effect="non-scaling-stroke" class="st0" d="M84.4,119.2v17.6H51.1c-2.6-0.2-4.7,1.8-4.9,4.2c-0.2,2.4,1.8,4.6,4.4,4.7
		c0.2,0,0.3,0,0.5,0h76c2.6,0.2,4.7-1.8,4.9-4.2c0.2-2.4-1.8-4.6-4.4-4.7c-0.2,0-0.3,0-0.5,0H93.9v-17.6H84.4z M165.3,21H13.2
		c-2.6,0-4.7,2-4.7,4.4l0,0v88.5c0,2.4,2.1,4.4,4.7,4.4l0,0h152.1c2.6,0,4.7-2,4.7-4.4V25.4C170,23,167.7,21,165.3,21z M61.5,105.3
		H21V73.7h40.3v31.6H61.5z M61.5,66.9H21V35.3h40.3v31.6H61.5z M109.3,105.3H69V73.7h40.3V105.3z M109.3,66.9H69V35.3h40.3V66.9z
		 M151.3,90.5h-13v12.2H136V90.5h-13.2v-2.1H136V76.1h2.3v12.2h13V90.5z M157.3,66.9H117V35.3h40.3V66.9z"/>
</g>
</svg>
