<?xml version="1.0" encoding="utf-8"?>
<!-- Generator: Adobe Illustrator 25.0.1, SVG Export Plug-In . SVG Version: 6.00 Build 0)  -->
<svg version="1.1" id="Layer_1" xmlns="http://www.w3.org/2000/svg" xmlns:xlink="http://www.w3.org/1999/xlink" x="0px" y="0px"
	 viewBox="0 0 50 56" style="enable-background:new 0 0 50 56;" xml:space="preserve">
<style type="text/css">
	.st0{fill:#FFFFFF;}
	.st1{fill:none;stroke:#FFFFFF;stroke-width:0.8827;stroke-miterlimit:10;}
	.st2{fill:#4B5058;}
</style>
<circle class="st0" cx="36.1" cy="9.6" r="1.7"/>
<circle class="st0" cx="27.1" cy="32.8" r="1.7"/>
<circle class="st0" cx="10.1" cy="15.8" r="1.7"/>
<polyline class="st1" points="26.8,32.1 23.6,19.5 36.1,9.6 "/>
<circle class="st0" cx="15.7" cy="27.3" r="1.2"/>
<circle class="st0" cx="23.6" cy="6.4" r="1.2"/>
<polyline class="st1" points="26,33 15.7,27.3 10.1,15.8 22.6,17.5 "/>
<line class="st1" x1="21.7" y1="18.6" x2="15.7" y2="27.3"/>
<polyline class="st1" points="10.5,15 23.1,6.5 23.1,15 "/>
<line class="st1" x1="23.9" y1="6.5" x2="35.9" y2="9.1"/>
<g transform="translate(0, 0)">
	<g transform="translate(0, 0.000003671237537750116) rotate(0)">
		<path vector-effect="non-scaling-stroke" class="st2" d="M47.1,31l-4.3-10.1c-0.2-0.3-0.2-0.5-0.2-0.8c0.2-1.9,0.6-9.8-5.3-13.8
			C28.5,0.5,5.7-2.2,4.2,21.1c0,0.2,0,0.2,0,0.2c0,0.8,0.3,6.2,3.9,10.8c3.1,4,4.6,12.7,4.2,18.3h14.2c0,0-0.5-4.2,2.5-4.3
			c2.8-0.2,8.4-0.2,9-0.2c0.2,0,0.2,0,0.2,0c0.6-0.2,4.5-0.6,4.5-3.7c0-2.3,0-4.8,0-6.2c0-0.6,0.3-1.1,0.9-1.4l2.6-1.4
			C47.1,32.5,47.4,31.7,47.1,31z M23.6,25.4l-0.6-2.2h-3.1l-0.6,2.2h-3.1l3.4-12.1h3.9l3.3,12.1H23.6z M31.9,25.4h-3.1V13.3h3.1
			V25.4z"/>
	</g>
</g>
<polygon class="st2" points="20,20.6 20.6,17 21.7,17 22.6,20.4 "/>
</svg>
