<?xml version="1.0" encoding="utf-8"?>
<!-- Generator: Adobe Illustrator 25.0.1, SVG Export Plug-In . SVG Version: 6.00 Build 0)  -->
<svg version="1.1" id="Layer_1_1560857895591" xmlns="http://www.w3.org/2000/svg" xmlns:xlink="http://www.w3.org/1999/xlink"
	 x="0px" y="0px" viewBox="0 0 182.9 165.6" style="enable-background:new 0 0 182.9 165.6;" xml:space="preserve">
<style type="text/css">
	.st0{fill:#4B5058;}
</style>
<rect x="73.5" y="126.3" vector-effect="non-scaling-stroke" class="st0" width="36.3" height="12.7"/>
<rect x="56.8" y="138.8" vector-effect="non-scaling-stroke" class="st0" width="68.7" height="5.2"/>
<path vector-effect="non-scaling-stroke" class="st0" d="M56.5,53.3c-8.3,0-14.8,6-14.8,13.5h29.7C71.4,59.3,64.8,53.3,56.5,53.3z"
	/>
<ellipse vector-effect="non-scaling-stroke" class="st0" cx="56.5" cy="45" rx="7.8" ry="7.8"/>
<path class="st0" d="M170,23H14c-2.1,0-3.8,1.8-3.8,4v91.3c0,2.1,1.8,4,3.8,4h155.7c2.1,0,3.8-1.8,3.8-4V27
	C173.7,24.8,172.2,23,170,23z M88.2,112.5H22.4V74.6h65.8V112.5z M88.8,70.9H22V32.9h66.8C88.8,32.9,88.8,70.9,88.8,70.9z
	 M160.6,112.2H94.8V74.4h65.8V112.2z M160.7,70.9H94.9V32.9h65.8V70.9z"/>
<path vector-effect="non-scaling-stroke" class="st0" d="M56.4,95c-8.3,0-14.8,6-14.8,13.5h29.7C71.2,101,64.6,95,56.4,95z"/>
<ellipse vector-effect="non-scaling-stroke" class="st0" cx="56.4" cy="86.8" rx="7.8" ry="7.8"/>
<path vector-effect="non-scaling-stroke" class="st0" d="M130.1,53.1c-8.3,0-14.8,6-14.8,13.5h29.7
	C144.9,59.1,138.4,53.1,130.1,53.1z"/>
<ellipse vector-effect="non-scaling-stroke" class="st0" cx="130.1" cy="45" rx="7.8" ry="7.8"/>
<path vector-effect="non-scaling-stroke" class="st0" d="M130,94.9c-8.3,0-14.8,6-14.8,13.5h29.7C144.8,100.9,138.2,94.9,130,94.9z"
	/>
<ellipse vector-effect="non-scaling-stroke" class="st0" cx="130" cy="86.8" rx="7.8" ry="7.8"/>
<rect x="76" y="62" class="st0" width="9" height="5.2"/>
<rect x="75.5" y="103.2" class="st0" width="9" height="5.2"/>
<rect x="149.1" y="60.3" class="st0" width="9" height="5.2"/>
<rect x="148.8" y="102.4" class="st0" width="9" height="5.2"/>
</svg>
