<svg version="1.2" xmlns="http://www.w3.org/2000/svg" overflow="visible" preserveAspectRatio="none" viewBox="0 0 173.88999938964844 166.25999450683594" id="Layer_1_1560857895597"><g transform="translate(1 1)"><defs><style>.cls-1_1560857895597{fill:#4b5058}</style></defs><path d="M77.78 119v14.76h-27a3.72 3.72 0 1 0 0 7.43h61.63a3.72 3.72 0 1 0 0-7.43h-27V119zm65.49-82.57H20a3.78 3.78 0 0 0-3.85 3.71v74.31a3.78 3.78 0 0 0 3.85 3.72h123.27a3.79 3.79 0 0 0 3.85-3.72V40.14a3.79 3.79 0 0 0-3.85-3.71zM59.13 107.2h-32.7V80.76h32.7zm0-32.24h-32.7V48.52h32.7zM98 107.2H65.29V80.76H98zM98 75H65.29V48.52H98zm34 19.87h-10.58v10.24h-1.86V94.87h-10.62v-1.79h10.62V82.84h1.86v10.24H132zM136.84 75h-32.7V48.52h32.7z" class="cls-1_1560857895597" vector-effect="non-scaling-stroke"/></g></svg>