<svg version="1.2" xmlns="http://www.w3.org/2000/svg" overflow="visible" preserveAspectRatio="none" viewBox="0 0 169.30999755859375 166.67999267578125" id="Layer_1_1560857895592"><g transform="translate(1 1)"><defs><style>.cls-1_1560857895592{fill:#4b5058}.cls-2_1560857895592{fill:#1d1d1b}</style></defs><path d="M133 32H71.56a6.85 6.85 0 0 0-6.83 6.83v95.63a6.85 6.85 0 0 0 6.83 6.83H133a6.85 6.85 0 0 0 6.83-6.83V38.79A6.85 6.85 0 0 0 133 32zm-27.15 101.82a4.26 4.26 0 1 1-1.2-5.91 4.27 4.27 0 0 1 1.2 5.91zM133 120.76H71.56V45.62H133zM56.53 67.44H28a5.61 5.61 0 0 0-5.61 5.61v63.15a5.61 5.61 0 0 0 5.61 5.61h28.53a5.61 5.61 0 0 0 5.61-5.61V73.05a5.61 5.61 0 0 0-5.61-5.61zm-18.14 4.94h7.76a1.24 1.24 0 0 1 0 2.48h-7.76a1.24 1.24 0 0 1 0-2.48zm3.88 67a3.72 3.72 0 1 1 3.73-3.76 3.72 3.72 0 0 1-3.73 3.72zm17.32-9.73H25V79.8h34.59z" class="cls-1_1560857895592" vector-effect="non-scaling-stroke"/><circle r="5.68" cy="84.86" cx="84.22" class="cls-1_1560857895592" vector-effect="non-scaling-stroke"/><path d="M95.26 78h1.59v9.4h5.26v1.15h-6.85zm10.21 0v10.53h-1.59V78zM111 88.53l-4-10.55h1.72l1.92 5.19c.53 1.43 1 2.71 1.32 4 .35-1.22.86-2.55 1.41-3.93l2.05-5.24h1.7l-4.41 10.55zm13.83-4.95H120v3.8h5.34v1.15h-6.93V78h6.65v1.14H120v3.33h4.79z" class="cls-2_1560857895592" vector-effect="non-scaling-stroke"/></g></svg>