<?xml version="1.0" encoding="utf-8"?>
<!-- Generator: Adobe Illustrator 24.1.2, SVG Export Plug-In . SVG Version: 6.00 Build 0)  -->
<svg version="1.1" id="Layer_1_1560857895596" xmlns="http://www.w3.org/2000/svg" xmlns:xlink="http://www.w3.org/1999/xlink"
	 x="0px" y="0px" viewBox="0 0 179.1 168.1" style="enable-background:new 0 0 179.1 168.1;" xml:space="preserve">
<style type="text/css">
	.st0{fill:#4B5058;}
</style>
<g transform="translate(1 1)">
	<path vector-effect="non-scaling-stroke" class="st0" d="M53.1,61.5V49.2c0-1.2-1.5-2.2-3.4-2.2s-3.4,1-3.4,2.2v12.4L53.1,61.5
		C53.1,61.5,53.1,61.6,53.1,61.5z M130,61.6V49.2c0-1.2-1.6-2.2-3.4-2.2s-3.4,1-3.4,2.2v12.4H130z M131.6,61.6H44.3
		c-5.3,0-9.7,4.3-9.7,9.7v38.2c0,5.3,4.3,9.7,9.7,9.7h87.3c5.3,0,9.7-4.3,9.7-9.7V71.3C141.2,65.9,136.9,61.6,131.6,61.6z"/>
</g>
</svg>
