<?xml version="1.0" encoding="utf-8"?>
<!-- Generator: Adobe Illustrator 24.1.2, SVG Export Plug-In . SVG Version: 6.00 Build 0)  -->
<svg version="1.1" id="Layer_1_1560857895596" xmlns="http://www.w3.org/2000/svg" xmlns:xlink="http://www.w3.org/1999/xlink"
	 x="0px" y="0px" viewBox="0 0 179.1 168.1" style="enable-background:new 0 0 179.1 168.1;" xml:space="preserve">
<style type="text/css">
	.st0{fill:#4B5058;}
</style>
<g id="icon_x2F_TVU-Nano-Video_x2F_green">
	<path id="TVU-Nano" class="st0" d="M130.5,28.9c1.9,0,3.4,1.5,3.4,3.4l0,0V69c0.3,0.2,0.5,0.5,0.8,0.9l2.2,3.8
		c4.6,0.4,8.2,4.3,8.2,9v40.3c0,4.9-4,9-9,9H51c-4.9,0-9-4-9-9v-11.2H32c-1.7,0-3.1-1.3-3.3-2.9v-0.4v-38c0-1.9,1.5-3.4,3.4-3.4
		c1.9,0,3.4,1.5,3.4,3.4l0,0V105h6.8V82.6c0-4.4,3.1-8,7.2-8.7l1.7-3.1c0-0.1,0-0.3,0-0.4V32.2c0-1.9,1.5-3.4,3.4-3.4
		c1.9,0,3.4,1.5,3.4,3.4v38.1v0.3c0.2,0.9,0.1,1.7-0.3,2.6l0,0l-0.2,0.4h71.9l-0.2-0.4c-1-0.5-1.6-1.6-1.6-2.9l0,0V32.2
		C127.1,30.3,128.6,28.9,130.5,28.9z"/>
</g>
</svg>
