<?xml version="1.0" encoding="utf-8"?>
<!-- Generator: Adobe Illustrator 25.0.1, SVG Export Plug-In . SVG Version: 6.00 Build 0)  -->
<svg version="1.1" id="Layer_1_1560857895596" xmlns="http://www.w3.org/2000/svg" xmlns:xlink="http://www.w3.org/1999/xlink"
	 x="0px" y="0px" viewBox="0 0 179.1 168.1" style="enable-background:new 0 0 179.1 168.1;" xml:space="preserve">
<style type="text/css">
	.st0{fill:#4B5058;}
</style>
<path class="st0" d="M163.9,83.7v35.9H14.1V83.7H163.9L163.9,83.7z M169.9,83.7c1.5,0,3.1,1.4,3.1,3.1v29.9c0,1.5-1.4,3.1-3.1,3.1
	h-3.1V83.7H169.9L169.9,83.7z M11,83.7v35.9H8.1c-1.5,0-3.1-1.4-3.1-3.1V86.8c0-1.5,1.4-3.1,3.1-3.1L11,83.7L11,83.7z M155,107.7
	H107v5.8H155V107.7L155,107.7z M71,107.7H23v5.8H71V107.7L71,107.7z M89.2,92.6c-4.8,0-8.9,4.1-8.9,8.9s4.1,8.9,8.9,8.9
	c4.8,0,8.9-4.1,8.9-8.9S94,92.6,89.2,92.6L89.2,92.6z M155,98.8H107v5.8H155V98.8L155,98.8z M71,98.8H23v5.8H71V98.8L71,98.8z
	 M155,89.7H107v5.8H155V89.7L155,89.7z M71,89.7H23v5.8H71V89.7L71,89.7z M146.7,47.8c2.4,0,4.6,1.4,5.5,3.8l11.5,29H14.1l11.5-29
	c0.9-2.2,3.1-3.8,5.5-3.8H146.7L146.7,47.8z"/>
</svg>
