<svg version="1.2" xmlns="http://www.w3.org/2000/svg" overflow="visible" preserveAspectRatio="none" viewBox="0 0 182.8800048828125 165.5500030517578" id="Layer_1_1560857895591"><g transform="translate(1 1)"><defs><style>.cls-1_1560857895591{fill:#4b5058}</style></defs><path d="M133.9 106.59H38.28v5.22q0 2.16 2.55 3.69A11.75 11.75 0 0 0 47 117h86.9a11.7 11.7 0 0 0 6.1-1.5q2.57-1.53 2.56-3.69v-5.22zm-39.11 5.22h-8.7a.87.87 0 0 1 0-1.74h8.7a.87.87 0 0 1 0 1.74zm42.32-70.96H43.77a2.92 2.92 0 0 0-2.92 2.92v58.34a2.91 2.91 0 0 0 2.92 2.89h93.34a2.91 2.91 0 0 0 2.92-2.91V43.77a2.92 2.92 0 0 0-2.92-2.92zM134 98.47H46.49V48.19H134z" class="cls-1_1560857895591" vector-effect="non-scaling-stroke"/><path d="M47.65 49.18v48.25H133V49.18zM67 50.7a2.16 2.16 0 1 1-2.55 2.12A2.37 2.37 0 0 1 67 50.7zm-7 0a2.16 2.16 0 1 1-2.55 2.12A2.36 2.36 0 0 1 60 50.7zm-7.09 0a2.16 2.16 0 1 1-2.56 2.12 2.36 2.36 0 0 1 2.51-2.12zm77.36 44.48H50.39V58.73h79.83z" class="cls-1_1560857895591" vector-effect="non-scaling-stroke"/><path d="M118.36 90.24H89.94V65.66h28.42zm-27.42-1h26.42V66.66H90.94zm-26.56-4.79h-5.79v-2.57h5.79a1.4 1.4 0 0 0 1.06-.55l.36-.48 2.06 1.54-.39.52a4 4 0 0 1-3.09 1.54zM75.32 70.3a2.58 2.58 0 1 0-2.57-2.58 2.57 2.57 0 0 0 2.57 2.58zm1.54 5.27a1.19 1.19 0 0 1-1.16-.7l-1-2.06a3.83 3.83 0 0 0-1.76-1.75l-2.19-1-1.8-.56a3.8 3.8 0 0 0-2.83.15l-.13.06c-1.37.75-4 2-4.06 2L63 74c.11 0 2.66-1.27 4.11-2a1.17 1.17 0 0 1 .9-.1l1.36.42L66.7 77a2.77 2.77 0 0 0 .64 3.47l5 3.6-1.54-3.73s-1 .13-.77-.25L72.88 75l.49 1a3.71 3.71 0 0 0 3.49 2.2h3.74v-2.63z" class="cls-1_1560857895591" vector-effect="non-scaling-stroke"/><path d="M71.33 84.45l-2.44 6.43h2.7l2.19-5.53a3.8 3.8 0 0 0-.9-4.12l-3.09-3.08L68 80l3.07 3a1.16 1.16 0 0 1 .26 1.45z" class="cls-1_1560857895591" vector-effect="non-scaling-stroke"/></g></svg>