<svg version="1.2" xmlns="http://www.w3.org/2000/svg" overflow="visible" preserveAspectRatio="none" viewBox="0 0 149.14999389648438 165.5500030517578" id="Layer_1_1560857895595"><g transform="translate(1 1)"><defs><style>.cls-1_1560857895595{fill:#4b5058}</style></defs><path d="M72.21 49.62V75.7a8.4 8.4 0 0 1 5.06 0V49.62a8.4 8.4 0 0 1-5.06 0zM40.73 76.39l24.8 8.06a8.47 8.47 0 0 1 1.57-4.81l-24.8-8.06a8.59 8.59 0 0 1-.42 2.53 8.14 8.14 0 0 1-1.15 2.28zm15.74 38.22l15.32-21.1a8.39 8.39 0 0 1-4.09-3l-15.33 21.1a8.54 8.54 0 0 1 2.28 1.18 8.18 8.18 0 0 1 1.82 1.82zm41.2-3.16L82.34 90.36a8.43 8.43 0 0 1-4.09 3l15.33 21.09a8.4 8.4 0 0 1 1.82-1.8 8.74 8.74 0 0 1 2.27-1.2zm9.73-40.16l-24.8 8.06a8.38 8.38 0 0 1 1.56 4.81L109 76.1a8.55 8.55 0 0 1-1.57-4.81z" class="cls-1_1560857895595" vector-effect="non-scaling-stroke"/><path d="M72.21 48.79a8.43 8.43 0 1 0-5.9-8 8.47 8.47 0 0 0 5.9 8zM39.94 76.14a8.2 8.2 0 0 0 1.15-2.29 8.58 8.58 0 0 0 .42-2.52 8.43 8.43 0 1 0-1.57 4.81zM56 115.28a8.63 8.63 0 0 0-1.82-1.8 8.17 8.17 0 0 0-2.27-1.17 8.42 8.42 0 1 0 4.09 3zm42.16-3.16a8.48 8.48 0 0 0-2.27 1.18 8 8 0 0 0-1.82 1.8 8.42 8.42 0 1 0 4.09-3zM108.19 71a8.49 8.49 0 0 0 1.57 4.81 8.42 8.42 0 1 0-1.57-4.81zm-33.45 5.13a8.43 8.43 0 1 0 8.43 8.43 8.43 8.43 0 0 0-8.43-8.43z" class="cls-1_1560857895595" vector-effect="non-scaling-stroke"/></g></svg>