<svg version="1.2" xmlns="http://www.w3.org/2000/svg" overflow="visible" preserveAspectRatio="none" viewBox="0 0 134.17999267578125 166.67999267578125" id="Layer_1_1560857895597"><g transform="translate(1 1)"><defs><style>.cls-1_1560857895597{fill:#4b5058}</style></defs><path d="M37.06 32.33h58.19a6.62 6.62 0 0 1 6.62 6.62v10.24H30.32V39.08a6.75 6.75 0 0 1 6.74-6.75zm-6.74 92.25h71.55v12.29a4.56 4.56 0 0 1-4.56 4.56H34.88a4.56 4.56 0 0 1-4.56-4.56v-12.29zm0-74.39v73.39h71.54V50.19zM95 102a4.26 4.26 0 1 1-1-4.9 4.26 4.26 0 0 1 1 4.9zm.39-11.9H37.76V55.52h57.59z" class="cls-1_1560857895597" vector-effect="non-scaling-stroke"/></g></svg>