<?xml version="1.0" encoding="utf-8"?>
<!-- Generator: Adobe Illustrator 25.0.1, SVG Export Plug-In . SVG Version: 6.00 Build 0)  -->
<svg version="1.1" id="Layer_1_1560857895596" xmlns="http://www.w3.org/2000/svg" xmlns:xlink="http://www.w3.org/1999/xlink"
	 x="0px" y="0px" viewBox="0 0 179.1 168.1" style="enable-background:new 0 0 179.1 168.1;" xml:space="preserve">
<style type="text/css">
	.st0{fill:#4B5058;}
</style>
<path class="st0" d="M162.3,78.5v34.8H17.5V78.5H162.3L162.3,78.5z M168.2,78.5c1.6,0,2.8,1.3,2.8,2.8v29c0,1.6-1.3,2.8-2.8,2.8
	h-2.8V78.5H168.2L168.2,78.5z M14.7,78.5v34.8h-2.8c-1.6,0-2.8-1.3-2.8-2.8V81.3c0-1.6,1.3-2.8,2.8-2.8L14.7,78.5L14.7,78.5z
	 M72.6,84.3c-6.5,0-11.7,5.2-11.7,11.7c0,6.5,5.2,11.7,11.7,11.7c6.5,0,11.7-5.2,11.7-11.7C84.3,89.5,79.1,84.3,72.6,84.3L72.6,84.3
	z M107.4,84.3c-6.5,0-11.7,5.2-11.7,11.7c0,6.5,5.2,11.7,11.7,11.7c6.5,0,11.7-5.2,11.7-11.7C118.9,89.5,113.7,84.3,107.4,84.3
	L107.4,84.3z M136.4,101.6h-11.7v5.8h11.7V101.6L136.4,101.6z M153.7,101.6H142v5.8h11.7V101.6L153.7,101.6z M145.8,43.7
	c2.4,0,4.6,1.4,5.4,3.6l11.2,28.2H17.5l11.2-28.2c0.9-2.2,3-3.6,5.4-3.6H145.8L145.8,43.7z"/>
</svg>
