<?xml version="1.0" encoding="utf-8"?>
<!-- Generator: Adobe Illustrator 25.0.1, SVG Export Plug-In . SVG Version: 6.00 Build 0)  -->
<svg version="1.1" id="Layer_1_1560857895591" xmlns="http://www.w3.org/2000/svg" xmlns:xlink="http://www.w3.org/1999/xlink"
	 x="0px" y="0px" viewBox="0 0 182.9 165.6" style="enable-background:new 0 0 182.9 165.6;" xml:space="preserve">
<style type="text/css">
	.st0{fill:#4B5058;}
</style>
<g transform="translate(1 1)">
	<path vector-effect="non-scaling-stroke" class="st0" d="M159.5,116.9H11v8.1c0,2.2,1.3,4.1,4,5.7c2.9,1.6,6.2,2.4,9.6,2.3h135
		c3.3,0.1,6.6-0.7,9.5-2.3c2.7-1.6,4-3.5,4-5.7v-8.1H159.5z M98.8,125H85.3c-0.7,0-1.4-0.6-1.3-1.4c0-0.7,0.6-1.3,1.3-1.3h13.5
		c0.7,0,1.4,0.6,1.3,1.4C100.1,124.4,99.5,125,98.8,125z M164.5,14.7h-145c-2.5,0-4.5,2-4.5,4.5v90.6c0,2.5,2,4.5,4.5,4.5h145
		c2.5,0,4.5-2,4.5-4.5c0,0,0,0,0,0V19.3C169.1,16.8,167,14.7,164.5,14.7z M159.7,104.2H23.8V26.1h135.9V104.2z"/>
	<path vector-effect="non-scaling-stroke" class="st0" d="M25.6,27.7v75h132.6v-75H25.6z M55.6,30c1.8,0.3,3,2.1,2.7,3.9
		c-0.3,1.8-2.1,3-3.9,2.7c-1.6-0.3-2.8-1.7-2.7-3.3C51.9,31.3,53.6,29.9,55.6,30z M44.7,30c1.8,0.3,3,2.1,2.7,3.9s-2.1,3-3.9,2.7
		c-1.6-0.3-2.8-1.7-2.7-3.3C41,31.3,42.7,29.9,44.7,30z M33.7,30c1.8,0.3,3,2.1,2.7,3.9c-0.3,1.8-2.1,3-3.9,2.7
		c-1.6-0.3-2.7-1.7-2.7-3.3C29.9,31.4,31.7,29.9,33.7,30L33.7,30z M153.9,99.1H29.8V42.5h124L153.9,99.1z"/>
	<path vector-effect="non-scaling-stroke" class="st0" d="M135.4,91.5H91.3V53.3h44.2V91.5z M92.8,89.9h41V54.8h-41V89.9z
		 M51.5,82.5h-9v-4h9c0.6,0,1.3-0.3,1.6-0.9l0.6-0.7l3.2,2.4l-0.6,0.8C55.2,81.6,53.4,82.4,51.5,82.5z M68.5,60.5c2.2,0,4-1.8,4-4
		c0-2.2-1.8-4-4-4c-2.2,0-4,1.8-4,4c0,0,0,0,0,0C64.5,58.7,66.3,60.5,68.5,60.5C68.5,60.5,68.5,60.5,68.5,60.5z M70.9,68.7
		c-0.8,0-1.5-0.4-1.8-1.1l-1.6-3.2c-0.6-1.2-1.5-2.1-2.7-2.7l-3.4-1.6l-2.8-0.9c-1.4-0.5-3-0.4-4.4,0.2L54,59.6
		c-2.1,1.2-6.2,3.1-6.3,3.1l1.7,3.6c0.2,0,4.1-2,6.4-3.1c0.4-0.2,0.9-0.3,1.4-0.2l2.1,0.7l-4.1,7.3c-1,1.8-0.6,4.1,1,5.4l7.8,5.6
		l-2.4-5.8c0,0-1.6,0.2-1.2-0.4l4.4-7.9l0.8,1.6c0.9,2.1,3.1,3.5,5.4,3.4h5.8v-4.1H70.9z"/>
	<path vector-effect="non-scaling-stroke" class="st0" d="M62.3,82.5l-3.8,10h4.2l3.4-8.6c0.9-2.2,0.3-4.7-1.4-6.4L60,72.7l-2.8,2.9
		l4.8,4.7C62.6,80.8,62.8,81.7,62.3,82.5z"/>
</g>
</svg>
