<?xml version="1.0" encoding="utf-8"?>
<!-- Generator: Adobe Illustrator 25.0.1, SVG Export Plug-In . SVG Version: 6.00 Build 0)  -->
<svg version="1.1" id="Layer_1_1560857895596" xmlns="http://www.w3.org/2000/svg" xmlns:xlink="http://www.w3.org/1999/xlink"
	 x="0px" y="0px" viewBox="0 0 179.1 168.1" style="enable-background:new 0 0 179.1 168.1;" xml:space="preserve">
<style type="text/css">
	.st0{fill:#4B5058;}
</style>
<path class="st0" d="M164,86.2v35.9H14.2V86.2H164L164,86.2z M169.9,86.2c1.6,0,3.1,1.5,3.1,3.1v30c0,1.6-1.5,3.1-3.1,3.1h-3.1V86.2
	H169.9L169.9,86.2z M11.1,86.2v35.9H8.1c-1.6,0-3.1-1.5-3.1-3.1V89.3c0-1.6,1.5-3.1,3.1-3.1H11.1L11.1,86.2z M89,113.2
	c-1.6,0-3.1,1.5-3.1,3.1s1.5,3.1,3.1,3.1c1.6,0,3.1-1.5,3.1-3.1S90.6,113.2,89,113.2L89,113.2z M89,98.2c-3.2,0-6,2.6-6,6
	c0,3.4,2.6,6,6,6c3.2,0,6-2.6,6-6C95,100.8,92.4,98.2,89,98.2L89,98.2z M77.2,101.3c-1.6,0-3.1,1.5-3.1,3.1s1.5,3.1,3.1,3.1
	c1.6,0,3.1-1.5,3.1-3.1S78.8,101.3,77.2,101.3L77.2,101.3z M101,101.3c-1.6,0-3.1,1.5-3.1,3.1s1.5,3.1,3.1,3.1
	c1.6,0,3.1-1.5,3.1-3.1S102.7,101.3,101,101.3L101,101.3z M89,89.3c-1.6,0-3.1,1.5-3.1,3.1c0,1.6,1.5,3.1,3.1,3.1
	c1.6,0,3.1-1.5,3.1-3.1C92.1,90.6,90.6,89.3,89,89.3L89,89.3z M146.8,50.2c2.4,0,4.7,1.5,5.5,3.9L164,83.2H14.2l11.6-29.1
	c0.8-2.3,3.1-3.9,5.5-3.9H146.8L146.8,50.2z"/>
</svg>
