<svg version="1.2" xmlns="http://www.w3.org/2000/svg" overflow="visible" preserveAspectRatio="none" viewBox="0 0 179.1300048828125 168.0500030517578" id="Layer_1_1560857895596"><g transform="translate(1 1)"><defs><style>.cls-1_1560857895596{fill:#4b5058}</style></defs><path d="M53.13 61.55V49.16c0-1.21-1.55-2.2-3.43-2.2s-3.44 1-3.44 2.2v12.39h6.85s.02.01.02 0zm76.87.04V49.16c0-1.21-1.55-2.2-3.43-2.2s-3.43 1-3.43 2.2v12.43H130zm1.59 0H44.3a9.71 9.71 0 0 0-9.68 9.68v38.15a9.71 9.71 0 0 0 9.68 9.68h87.29a9.71 9.71 0 0 0 9.67-9.68V71.27a9.7 9.7 0 0 0-9.67-9.68z" class="cls-1_1560857895596" vector-effect="non-scaling-stroke"/></g></svg>